<?xml version="1.0" encoding="UTF-8"?><svg id="Layer_2" xmlns="http://www.w3.org/2000/svg" viewBox="0 0 300.43 81.04"><defs><style>.cls-1,.cls-2{fill-rule:evenodd;}.cls-1,.cls-3{fill:#010101;}.cls-2{fill:#5356a5;}.cls-4{letter-spacing:-.02em;}.cls-5{letter-spacing:-.02em;}.cls-6{letter-spacing:-.01em;}.cls-7{letter-spacing:-.05em;}.cls-8{letter-spacing:-.04em;}.cls-9{letter-spacing:-.03em;}.cls-10{letter-spacing:0em;}.cls-11{letter-spacing:0em;}.cls-12{letter-spacing:0em;}.cls-3{font-family:ProductSans-Bold, 'Product Sans';font-size:18.38px;font-weight:700;}</style></defs><g id="Layer_1-2"><g id="logo_primary_color_onLight"><g id="logo"><g id="UI-Element-_logoMark"><path id="logo_fill" class="cls-2" d="M48.4,0c1.63,0,3.14.88,3.9,2.32.73,1.37.7,2.99-.08,4.34l-.03.05-6.86,11.47c-.78,1.3-2.18,2.11-3.67,2.12h-.05s-7.83,0-7.83,0l3.26,7.45v.02s.03.04.03.04c.77,1.39.75,3.03-.05,4.4l-.03.05-6.86,11.47c-.78,1.3-2.18,2.11-3.67,2.12h-.05s-9.61,0-9.61,0l-6.91,7.29h-.01c-.65.67-1.53,1.04-2.45,1.04-.23,0-.46-.02-.68-.07-1.12-.23-2.05-.99-2.49-2.05v-.03s-3.65-8.35-3.65-8.35l-.02-.03-.02-.03s0-.01-.01-.02c-.77-1.39-.75-3.03.05-4.4l.03-.05,6.65-11.13-4.9-11.22.09-.05h0c-.21-1.04-.04-2.12.49-3.06l.03-.05.03-.05L9.88,2.12C10.66.83,12.06.02,13.56,0h34.85ZM12.39,45.76h-7.29s2.14,4.95,2.14,4.95h0c.04.1.09.15.18.17.08.02.14,0,.2-.05h.01s4.76-5.07,4.76-5.07ZM33.22,28.74H11.19s-.05,0-.07,0h0s6.04,13.82,6.04,13.82h9.27c.38,0,.75-.2.96-.53l.02-.03,6.87-11.48c.2-.34.23-.74.07-1.1-.19-.41-.62-.68-1.1-.68ZM8.9,31.57l-5.45,9.19c-.22.37-.23.79-.04,1.17l.02.04v.02s.03.04.03.04l.04.06.05.06.05.05h0s.03.04.03.04l.03.03c.17.16.38.25.62.28h.05s.03,0,.03,0h.04s9.25,0,9.25,0l-4.76-10.98ZM7.47,20.32l2.39,5.49.05-.02c.41-.14.85-.21,1.28-.22h.07s21.35,0,21.35,0l-2.29-5.25H7.47ZM48.34,3.2h-22.11l6.04,13.82h9.26c.38,0,.75-.2.96-.53l.02-.03,6.87-11.48c.2-.34.23-.74.07-1.1-.18-.4-.6-.67-1.08-.68h-.03ZM22.85,3.2h-9.21c-.38,0-.74.2-.95.53l-.02.03-6.85,11.48c-.2.34-.23.74-.06,1.1.18.4.6.67,1.07.68h.03s22.02,0,22.02,0l-6.03-13.82Z"/></g><path id="FlutterFlow" class="cls-1" d="M84.91,17.21l.03-7.04h-19.33v31.98h7.28v-11.74h9.52l.03-7.04h-9.55v-6.17h12.02ZM89.03,42.15h6.82V8.8h-6.82v33.35ZM115.54,19.31v12.47c0,3.24-1.73,4.71-4.23,4.71-2.18,0-3.96-1.32-3.96-4.16v-13.02h-6.82v14.02c0,6.17,3.91,9.46,8.5,9.46,3,0,5.27-1.1,6.5-2.79v2.15h6.82v-22.84h-6.82ZM140.69,25.89v-6.58h-4.68v-6.4l-6.82,2.06v4.34h-3.64v6.58h3.64v8.09c0,6.4,2.59,9.09,11.5,8.18v-6.21c-3,.18-4.68,0-4.68-1.96v-8.09h4.68ZM158.33,25.89v-6.58h-4.68v-6.4l-6.82,2.06v4.34h-3.64v6.58h3.64v8.09c0,6.4,2.59,9.09,11.5,8.18v-6.21c-3,.18-4.68,0-4.68-1.96v-8.09h4.68ZM168.74,33.47h16.14c.18-.87.27-1.78.27-2.74,0-6.9-4.91-12.06-11.55-12.06-7.18,0-12.1,5.25-12.1,12.06s4.82,12.06,12.6,12.06c4.32,0,7.68-1.6,9.91-4.71l-5.46-3.15c-.91,1.01-2.5,1.74-4.37,1.74-2.5,0-4.59-.82-5.46-3.2ZM168.61,28.36c.64-2.33,2.36-3.61,4.96-3.61,2.05,0,4.09.96,4.82,3.61h-9.78ZM195.84,23.38v-4.07h-6.82v22.84h6.82v-10.32c0-4.52,4-5.66,6.82-5.21v-7.77c-2.86,0-5.91,1.46-6.82,4.52ZM225.37,17.21l.03-7.04h-19.33v31.98h7.28v-11.74h9.52l.03-7.04h-9.55v-6.17h12.02ZM229.49,42.15h6.82V8.8h-6.82v33.35ZM252.23,42.79c6.68,0,12.05-5.25,12.05-12.06s-5.37-12.06-12.05-12.06-12.05,5.25-12.05,12.06,5.37,12.06,12.05,12.06ZM252.23,36.12c-2.96,0-5.23-2.15-5.23-5.39s2.27-5.39,5.23-5.39,5.23,2.15,5.23,5.39-2.27,5.39-5.23,5.39ZM293.15,19.31l-3.27,12.24-3.55-12.24h-6.37l-3.55,12.24-3.27-12.24h-7.28l7.28,22.84h6.37l3.64-12.2,3.64,12.2h6.37l7.28-22.84h-7.28Z"/></g></g><text class="cls-3" transform="translate(66.94 75.8)"><tspan class="cls-5" x="0" y="0">D</tspan><tspan class="cls-12" x="12.94" y="0">e</tspan><tspan class="cls-6" x="22.97" y="0">v</tspan><tspan x="32.93" y="0">e</tspan><tspan class="cls-10" x="43.15" y="0">lo</tspan><tspan x="58.02" y="0">per</tspan><tspan class="cls-4" x="86.67" y="0" xml:space="preserve"> G</tspan><tspan class="cls-9" x="104.87" y="0">r</tspan><tspan class="cls-11" x="111.79" y="0">o</tspan><tspan x="122.29" y="0">up</tspan><tspan class="cls-8" x="143.79" y="0"> </tspan><tspan class="cls-7" x="147.1" y="0">V</tspan><tspan class="cls-11" x="158.68" y="0">ad</tspan><tspan x="179.35" y="0">o</tspan><tspan class="cls-10" x="189.94" y="0">d</tspan><tspan x="200.87" y="0">a</tspan><tspan class="cls-4" x="210.71" y="0">r</tspan><tspan x="217.82" y="0">a</tspan></text></g></svg>